<svg width="171" height="32" viewBox="0 0 171 32" fill="none" xmlns="http://www.w3.org/2000/svg">
<path d="M44.2642 10.4545H48.0568L52.0625 20.2273H52.233L56.2386 10.4545H60.0312V25H57.0483V15.5327H56.9276L53.1634 24.929H51.1321L47.3679 15.4972H47.2472V25H44.2642V10.4545ZM62.5082 25V14.0909H65.5337V25H62.5082ZM64.0281 12.6847C63.5782 12.6847 63.1924 12.5355 62.8704 12.2372C62.5531 11.9342 62.3945 11.572 62.3945 11.1506C62.3945 10.7339 62.5531 10.3764 62.8704 10.0781C63.1924 9.77509 63.5782 9.62358 64.0281 9.62358C64.4779 9.62358 64.8614 9.77509 65.1786 10.0781C65.5006 10.3764 65.6616 10.7339 65.6616 11.1506C65.6616 11.572 65.5006 11.9342 65.1786 12.2372C64.8614 12.5355 64.4779 12.6847 64.0281 12.6847ZM77.0341 17.2017L74.2642 17.3722C74.2169 17.1354 74.1151 16.9223 73.9588 16.733C73.8026 16.5388 73.5966 16.3849 73.3409 16.2713C73.09 16.1529 72.7893 16.0938 72.4389 16.0938C71.9702 16.0938 71.5748 16.1932 71.2528 16.392C70.9309 16.5862 70.7699 16.8466 70.7699 17.1733C70.7699 17.4337 70.8741 17.6539 71.0824 17.8338C71.2907 18.0137 71.6482 18.1581 72.1548 18.267L74.1293 18.6648C75.1899 18.8826 75.9806 19.233 76.5014 19.7159C77.0223 20.1989 77.2827 20.8333 77.2827 21.6193C77.2827 22.3343 77.072 22.9616 76.6506 23.5014C76.2339 24.0412 75.661 24.4626 74.9318 24.7656C74.2074 25.0639 73.3717 25.2131 72.4247 25.2131C70.9806 25.2131 69.83 24.9124 68.973 24.3111C68.1207 23.705 67.6212 22.8812 67.4744 21.8395L70.4503 21.6832C70.5402 22.1236 70.758 22.4598 71.1037 22.6918C71.4493 22.919 71.892 23.0327 72.4318 23.0327C72.9621 23.0327 73.3883 22.9309 73.7102 22.7273C74.0369 22.5189 74.2027 22.2514 74.2074 21.9247C74.2027 21.6501 74.0866 21.4252 73.8594 21.25C73.6321 21.0701 73.2817 20.9328 72.8082 20.8381L70.919 20.4616C69.8537 20.2486 69.0606 19.8793 68.5398 19.3537C68.0237 18.8281 67.7656 18.1581 67.7656 17.3438C67.7656 16.643 67.955 16.0393 68.3338 15.5327C68.7173 15.026 69.2547 14.6354 69.946 14.3608C70.642 14.0862 71.4564 13.9489 72.3892 13.9489C73.767 13.9489 74.8513 14.2401 75.642 14.8224C76.4375 15.4048 76.9015 16.1979 77.0341 17.2017ZM81.9293 21.8608L81.9364 18.2315H82.3768L85.8711 14.0909H89.3441L84.6495 19.5739H83.9322L81.9293 21.8608ZM79.1879 25V10.4545H82.2134V25H79.1879ZM86.006 25L82.7958 20.2486L84.8129 18.1108L89.5501 25H86.006ZM97.8242 20.3551V14.0909H100.85V25H97.945V23.0185H97.8313C97.5851 23.6577 97.1755 24.1714 96.6026 24.5597C96.0344 24.9479 95.3408 25.142 94.5217 25.142C93.7925 25.142 93.1509 24.9763 92.5969 24.6449C92.043 24.3134 91.6097 23.8423 91.2972 23.2315C90.9895 22.6207 90.8332 21.8892 90.8285 21.0369V14.0909H93.854V20.4972C93.8588 21.1411 94.0316 21.6501 94.3725 22.0241C94.7134 22.3982 95.1703 22.5852 95.7433 22.5852C96.1078 22.5852 96.4487 22.5024 96.766 22.3366C97.0832 22.1662 97.3389 21.9152 97.533 21.5838C97.7319 21.2524 97.829 20.8428 97.8242 20.3551ZM106.295 10.4545V25H103.27V10.4545H106.295ZM111.283 25H107.988L113.009 10.4545H116.972L121.986 25H118.691L115.047 13.7784H114.934L111.283 25ZM111.077 19.2827H118.861V21.6832H111.077V19.2827ZM127.192 25.1776C126.364 25.1776 125.613 24.9645 124.941 24.5384C124.273 24.1075 123.743 23.4754 123.35 22.642C122.962 21.804 122.767 20.7765 122.767 19.5597C122.767 18.3097 122.969 17.2704 123.371 16.4418C123.774 15.6084 124.309 14.9858 124.976 14.5739C125.649 14.1572 126.385 13.9489 127.185 13.9489C127.796 13.9489 128.305 14.053 128.712 14.2614C129.124 14.465 129.455 14.7206 129.706 15.0284C129.962 15.3314 130.156 15.6297 130.289 15.9233H130.381V10.4545H133.4V25H130.417V23.2528H130.289C130.147 23.5559 129.945 23.8565 129.685 24.1548C129.429 24.4484 129.096 24.6922 128.684 24.8864C128.276 25.0805 127.779 25.1776 127.192 25.1776ZM128.151 22.7699C128.639 22.7699 129.051 22.6373 129.387 22.3722C129.728 22.1023 129.988 21.7259 130.168 21.2429C130.353 20.7599 130.445 20.1941 130.445 19.5455C130.445 18.8968 130.355 18.3333 130.175 17.8551C129.995 17.3769 129.735 17.0076 129.394 16.7472C129.053 16.4867 128.639 16.3565 128.151 16.3565C127.654 16.3565 127.235 16.4915 126.894 16.7614C126.553 17.0312 126.295 17.4053 126.12 17.8835C125.944 18.3617 125.857 18.9157 125.857 19.5455C125.857 20.1799 125.944 20.741 126.12 21.2287C126.3 21.7116 126.558 22.0904 126.894 22.3651C127.235 22.6349 127.654 22.7699 128.151 22.7699ZM135.887 25V14.0909H138.771V16.0156H138.898C139.126 15.3764 139.504 14.8722 140.035 14.5028C140.565 14.1335 141.2 13.9489 141.938 13.9489C142.686 13.9489 143.323 14.1359 143.849 14.5099C144.374 14.8793 144.725 15.3812 144.9 16.0156H145.013C145.236 15.3906 145.638 14.8911 146.221 14.517C146.808 14.1383 147.502 13.9489 148.302 13.9489C149.32 13.9489 150.146 14.2732 150.781 14.9219C151.42 15.5658 151.739 16.4796 151.739 17.6634V25H148.721V18.2599C148.721 17.6539 148.56 17.1993 148.238 16.8963C147.916 16.5933 147.513 16.4418 147.031 16.4418C146.481 16.4418 146.053 16.617 145.745 16.9673C145.437 17.313 145.283 17.7699 145.283 18.3381V25H142.35V18.196C142.35 17.661 142.196 17.2348 141.888 16.9176C141.585 16.6004 141.185 16.4418 140.688 16.4418C140.352 16.4418 140.049 16.527 139.779 16.6974C139.514 16.8632 139.303 17.0975 139.147 17.4006C138.991 17.6989 138.913 18.0492 138.913 18.4517V25H135.887ZM154.129 25V14.0909H157.155V25H154.129ZM155.649 12.6847C155.199 12.6847 154.813 12.5355 154.491 12.2372C154.174 11.9342 154.016 11.572 154.016 11.1506C154.016 10.7339 154.174 10.3764 154.491 10.0781C154.813 9.77509 155.199 9.62358 155.649 9.62358C156.099 9.62358 156.482 9.77509 156.8 10.0781C157.122 10.3764 157.283 10.7339 157.283 11.1506C157.283 11.572 157.122 11.9342 156.8 12.2372C156.482 12.5355 156.099 12.6847 155.649 12.6847ZM162.604 18.6932V25H159.578V14.0909H162.462V16.0156H162.59C162.831 15.3812 163.236 14.8793 163.804 14.5099C164.373 14.1359 165.061 13.9489 165.871 13.9489C166.629 13.9489 167.289 14.1146 167.853 14.446C168.416 14.7775 168.854 15.2509 169.167 15.8665C169.479 16.4773 169.635 17.2064 169.635 18.054V25H166.61V18.5938C166.614 17.9261 166.444 17.4053 166.098 17.0312C165.753 16.6525 165.277 16.4631 164.671 16.4631C164.264 16.4631 163.904 16.5507 163.591 16.7259C163.283 16.901 163.042 17.1567 162.867 17.4929C162.696 17.8243 162.609 18.2244 162.604 18.6932Z" fill="#101828"/>
<path d="M0 8.42105C0 3.77023 3.77023 0 8.42105 0H23.5789C28.2298 0 32 3.77023 32 8.42105V23.5789C32 28.2298 28.2298 32 23.5789 32H8.42105C3.77023 32 0 28.2298 0 23.5789V8.42105Z" fill="#465FFF"/>
<g filter="url(#filter0_d_4_30)">
<path d="M8.42383 8.42153C8.42383 7.49136 9.17787 6.7373 10.108 6.7373C11.0382 6.7373 11.7922 7.49136 11.7922 8.42153V23.5794C11.7922 24.5096 11.0382 25.2636 10.108 25.2636C9.17787 25.2636 8.42383 24.5096 8.42383 23.5794V8.42153Z" fill="white"/>
</g>
<g filter="url(#filter1_d_4_30)">
<path d="M14.7422 15.1569C14.7422 14.2267 15.4962 13.4727 16.4264 13.4727C17.3566 13.4727 18.1106 14.2267 18.1106 15.1569V23.5779C18.1106 24.5081 17.3566 25.2621 16.4264 25.2621C15.4962 25.2621 14.7422 24.5081 14.7422 23.5779V15.1569Z" fill="white" fill-opacity="0.9"/>
</g>
<g filter="url(#filter2_d_4_30)">
<path d="M21.0547 10.9459C21.0547 10.0158 21.8087 9.26172 22.7389 9.26172C23.6691 9.26172 24.4231 10.0158 24.4231 10.9459V23.5775C24.4231 24.5077 23.6691 25.2617 22.7389 25.2617C21.8087 25.2617 21.0547 24.5077 21.0547 23.5775V10.9459Z" fill="white" fill-opacity="0.7"/>
</g>
<defs>
<filter id="filter0_d_4_30" x="7.42383" y="6.2373" width="5.36841" height="20.5263" filterUnits="userSpaceOnUse" color-interpolation-filters="sRGB">
<feFlood flood-opacity="0" result="BackgroundImageFix"/>
<feColorMatrix in="SourceAlpha" type="matrix" values="0 0 0 0 0 0 0 0 0 0 0 0 0 0 0 0 0 0 127 0" result="hardAlpha"/>
<feOffset dy="0.5"/>
<feGaussianBlur stdDeviation="0.5"/>
<feComposite in2="hardAlpha" operator="out"/>
<feColorMatrix type="matrix" values="0 0 0 0 0 0 0 0 0 0 0 0 0 0 0 0 0 0 0.12 0"/>
<feBlend mode="normal" in2="BackgroundImageFix" result="effect1_dropShadow_4_30"/>
<feBlend mode="normal" in="SourceGraphic" in2="effect1_dropShadow_4_30" result="shape"/>
</filter>
<filter id="filter1_d_4_30" x="13.7422" y="12.9727" width="5.36841" height="13.7894" filterUnits="userSpaceOnUse" color-interpolation-filters="sRGB">
<feFlood flood-opacity="0" result="BackgroundImageFix"/>
<feColorMatrix in="SourceAlpha" type="matrix" values="0 0 0 0 0 0 0 0 0 0 0 0 0 0 0 0 0 0 127 0" result="hardAlpha"/>
<feOffset dy="0.5"/>
<feGaussianBlur stdDeviation="0.5"/>
<feComposite in2="hardAlpha" operator="out"/>
<feColorMatrix type="matrix" values="0 0 0 0 0 0 0 0 0 0 0 0 0 0 0 0 0 0 0.12 0"/>
<feBlend mode="normal" in2="BackgroundImageFix" result="effect1_dropShadow_4_30"/>
<feBlend mode="normal" in="SourceGraphic" in2="effect1_dropShadow_4_30" result="shape"/>
</filter>
<filter id="filter2_d_4_30" x="20.0547" y="8.76172" width="5.36841" height="18" filterUnits="userSpaceOnUse" color-interpolation-filters="sRGB">
<feFlood flood-opacity="0" result="BackgroundImageFix"/>
<feColorMatrix in="SourceAlpha" type="matrix" values="0 0 0 0 0 0 0 0 0 0 0 0 0 0 0 0 0 0 127 0" result="hardAlpha"/>
<feOffset dy="0.5"/>
<feGaussianBlur stdDeviation="0.5"/>
<feComposite in2="hardAlpha" operator="out"/>
<feColorMatrix type="matrix" values="0 0 0 0 0 0 0 0 0 0 0 0 0 0 0 0 0 0 0.12 0"/>
<feBlend mode="normal" in2="BackgroundImageFix" result="effect1_dropShadow_4_30"/>
<feBlend mode="normal" in="SourceGraphic" in2="effect1_dropShadow_4_30" result="shape"/>
</filter>
</defs>
</svg>
